Coordinates
version=1
nRows=49
nColumns=12
inDegrees=yes

Units are S.I. units (second, meters, Newtons, ...)
Angles are in degrees

endheader
time	SC_y	SC_z	SC_x	AC_y	AC_z	AC_x	GH_y	GH_z	GH_yy	EL_x	PS_y
       0.0              -37.03          17.65          43.21          65.36         -5.549         -1.454          103.8          5.369         -126.8          112.0          143.9
  0.006943              -37.02          17.66          43.21          65.36         -5.549         -1.453          103.8          5.374         -126.8          112.0          143.9
   0.01389              -37.02          17.66          43.21          65.35         -5.548         -1.452          103.8           5.38         -126.8          112.0          143.9
   0.02083              -37.02          17.66           43.2          65.35         -5.547         -1.451          103.8          5.386         -126.8          112.0          143.9
   0.02777              -37.02          17.67           43.2          65.34         -5.547         -1.449          103.8          5.393         -126.8          112.0          143.9
   0.03472              -37.01          17.67           43.2          65.34         -5.546         -1.448          103.8            5.4         -126.8          112.0          143.9
   0.04166              -37.01          17.68          43.19          65.33         -5.545         -1.446          103.8          5.407         -126.8          112.0          143.9
    0.0486              -37.01          17.68          43.19          65.32         -5.544         -1.445          103.7          5.415         -126.8          112.0          143.9
   0.05555               -37.0          17.69          43.18          65.32         -5.543         -1.443          103.7          5.423         -126.8          112.0          143.9
   0.06249               -37.0          17.69          43.18          65.31         -5.542         -1.441          103.7          5.432         -126.8          112.0          143.9
   0.06943              -36.99           17.7          43.18           65.3         -5.541         -1.439          103.7          5.442         -126.8          112.0          143.9
   0.07638              -36.99           17.7          43.17          65.29          -5.54         -1.437          103.6          5.453         -126.8          112.0          143.9
   0.08332              -36.98          17.71          43.16          65.28         -5.539         -1.435          103.6          5.464         -126.8          112.0          143.9
   0.09026              -36.98          17.72          43.16          65.27         -5.537         -1.432          103.6          5.476         -126.8          112.0          143.9
   0.09721              -36.97          17.73          43.15          65.26         -5.536         -1.429          103.5           5.49         -126.8          112.0          143.9
    0.1041              -36.97          17.73          43.14          65.25         -5.534         -1.427          103.5          5.504         -126.8          112.0          143.9
    0.1111              -36.96          17.74          43.14          65.24         -5.532         -1.423          103.5           5.52         -126.8          112.0          143.9
     0.118              -36.95          17.75          43.13          65.22          -5.53          -1.42          103.4          5.537         -126.8          112.0          143.9
     0.125              -36.94          17.77          43.12          65.21         -5.528         -1.416          103.4          5.555         -126.8          112.0          143.9
    0.1319              -36.93          17.78          43.11          65.19         -5.526         -1.412          103.3          5.576         -126.8          112.0          143.9
    0.1389              -36.92          17.79           43.1          65.17         -5.523         -1.407          103.3          5.598         -126.8          112.0          143.9
    0.1458              -36.91          17.81          43.09          65.15         -5.521         -1.402          103.2          5.623         -126.8          112.0          143.9
    0.1528               -36.9          17.82          43.07          65.13         -5.518         -1.397          103.1           5.65         -126.8          112.0          144.0
    0.1597              -36.89          17.84          43.06           65.1         -5.514          -1.39          103.1           5.68         -126.8          112.0          144.0
    0.1666              -36.87          17.86          43.04          65.07          -5.51         -1.383          103.0          5.713         -126.8          112.0          144.0
    0.1736              -36.85          17.88          43.02          65.04         -5.506         -1.376          102.9          5.751         -126.8          112.0          144.0
    0.1805              -36.84          17.91           43.0           65.0         -5.502         -1.367          102.8          5.793         -126.8          112.0          144.0
    0.1875              -36.81          17.94          42.98          64.96         -5.496         -1.358          102.6           5.84         -126.8          112.0          144.0
    0.1944              -36.79          17.97          42.95          64.92          -5.49         -1.347          102.5          5.893         -126.9          112.0          144.0
    0.2014              -36.76           18.0          42.92          64.87         -5.483         -1.334          102.4          5.953         -126.9          112.0          144.1
    0.2083              -36.73          18.05          42.89          64.81         -5.476          -1.32          102.2          6.022         -126.9          112.0          144.1
    0.2152               -36.7          18.09          42.85          64.74         -5.467         -1.304          102.0          6.101         -126.9          112.0          144.1
    0.2222              -36.65          18.15          42.81          64.67         -5.456         -1.285          101.7          6.193         -126.9          112.0          144.1
    0.2291              -36.61          18.21          42.75          64.58         -5.445         -1.263          101.5          6.299         -126.9          112.0          144.2
    0.2361              -36.55          18.29          42.69          64.47         -5.431         -1.238          101.1          6.423         -126.9          112.0          144.2
     0.243              -36.48          18.37          42.62          64.35         -5.414         -1.207          100.8          6.569         -127.0          112.0          144.3
      0.25               -36.4          18.48          42.53           64.2         -5.394         -1.172          100.3          6.743         -127.0          112.0          144.3
    0.2569              -36.31           18.6          42.43          64.02         -5.371         -1.129           99.8          6.952         -127.0          112.0          144.4
    0.2638               -36.2          18.75          42.31          63.81         -5.343         -1.077          99.15          7.204         -127.1          112.0          144.5
    0.2708              -36.06          18.94          42.16          63.55         -5.308         -1.014          98.36          7.512         -127.1          112.0          144.6
    0.2777              -35.88          19.17          41.97          63.23         -5.265        -0.9354          97.39          7.893         -127.2          112.0          144.7
    0.2847              -35.67          19.45          41.74          62.83         -5.212        -0.8379          96.17          8.367         -127.3          111.9          144.9
    0.2916               -35.4          19.81          41.44          62.32         -5.144         -0.715          94.64          8.964         -127.4          111.9          145.1
    0.2986              -35.05          20.27          41.07          61.68         -5.059        -0.5589           92.7          9.724         -127.5          111.9          145.3
    0.3055              -34.61          20.85          40.59          60.86         -4.949         -0.359          90.21           10.7         -127.7          111.9          145.6
    0.3124              -34.05           21.6          39.97           59.8         -4.809        -0.1025          87.02          11.94         -127.9          111.8          146.0
    0.3194              -33.33          22.56          39.19          58.46         -4.629         0.2252          82.94          13.54         -128.2          111.8          146.6
    0.3263              -32.42          23.76           38.2          56.76         -4.403         0.6372          77.81          15.54         -128.6          111.7          147.2
    0.3333              -31.31          25.22           37.0           54.7         -4.128          1.139          71.56          17.98         -129.0          111.7          148.0
